<svg width="1024" height="1024" viewBox="0 0 1024 1024" fill="none" xmlns="http://www.w3.org/2000/svg">
<path fill-rule="evenodd" clip-rule="evenodd" d="M787.269 787.27C815.514 759.026 815.513 713.233 787.269 684.988L614.486 512.205L787.27 339.422C815.514 311.178 815.514 265.385 787.27 237.141C759.025 208.896 713.232 208.897 684.988 237.141L512.205 409.924L339.422 237.141C311.177 208.896 265.384 208.896 237.14 237.141C208.896 265.385 208.896 311.178 237.14 339.422L409.923 512.205L237.14 684.988C208.896 713.233 208.896 759.026 237.14 787.27C265.385 815.514 311.178 815.514 339.422 787.27L512.205 614.487L684.988 787.27C713.232 815.514 759.025 815.514 787.269 787.27Z" fill="white"/>
</svg>
